<svg width="40" height="40" viewBox="0 0 40 40" fill="none" xmlns="http://www.w3.org/2000/svg">
<path fill-rule="evenodd" clip-rule="evenodd" d="M10.7 8.0501C10.3446 7.7189 9.87446 7.5386 9.38871 7.54717C8.90296 7.55574 8.4395 7.75252 8.09596 8.09605C7.75243 8.43958 7.55565 8.90305 7.54708 9.3888C7.53851 9.87455 7.71882 10.3447 8.05002 10.7001L17.35 20.0001L8.05002 29.3001C7.8658 29.4718 7.71805 29.6788 7.61557 29.9088C7.51309 30.1388 7.45798 30.387 7.45354 30.6388C7.4491 30.8906 7.49541 31.1406 7.58971 31.3741C7.68401 31.6076 7.82438 31.8197 8.00242 31.9977C8.18047 32.1757 8.39255 32.3161 8.62602 32.4104C8.85949 32.5047 9.10957 32.551 9.36132 32.5466C9.61308 32.5421 9.86136 32.487 10.0914 32.3846C10.3214 32.2821 10.5284 32.1343 10.7 31.9501L20 22.6501L29.3 31.9501C29.4717 32.1343 29.6787 32.2821 29.9087 32.3846C30.1387 32.487 30.387 32.5421 30.6387 32.5466C30.8905 32.551 31.1405 32.5047 31.374 32.4104C31.6075 32.3161 31.8196 32.1757 31.9976 31.9977C32.1757 31.8197 32.316 31.6076 32.4103 31.3741C32.5046 31.1406 32.5509 30.8906 32.5465 30.6388C32.5421 30.387 32.4869 30.1388 32.3845 29.9088C32.282 29.6788 32.1342 29.4718 31.95 29.3001L22.65 20.0001L31.95 10.7001C32.2812 10.3447 32.4615 9.87455 32.453 9.3888C32.4444 8.90305 32.2476 8.43958 31.9041 8.09605C31.5605 7.75252 31.0971 7.55574 30.6113 7.54717C30.1256 7.5386 29.6555 7.7189 29.3 8.0501L20 17.3501L10.7 8.0501Z" fill="#3A612F"/>
</svg>
