<svg width="598" height="31" viewBox="0 0 598 31" fill="none" xmlns="http://www.w3.org/2000/svg">
<line y1="11" x2="258" y2="11" stroke="#242424" stroke-width="2"/>
<line y1="18" x2="258" y2="18" stroke="#242424" stroke-width="2"/>
<line x1="340" y1="11" x2="598" y2="11" stroke="#242424" stroke-width="2"/>
<line x1="340" y1="18" x2="598" y2="18" stroke="#242424" stroke-width="2"/>
<path d="M310.117 8.70144C309.357 8.00557 308.341 7.59105 307.265 7.53776C307.207 6.55663 306.752 5.62994 305.99 4.93612L301.859 1.16948C301.038 0.420663 299.924 0 298.763 0C297.602 0 296.488 0.420663 295.667 1.16948L291.539 4.93612C290.776 5.62987 290.322 6.5566 290.264 7.53776C289.226 7.59101 288.205 7.97846 287.411 8.70144L283.282 12.4694C282.461 13.2185 282 14.2342 282 15.2934C282 16.3525 282.461 17.3683 283.282 18.1174L287.411 21.884C288.172 22.5798 289.188 22.9943 290.264 23.0477C290.322 23.9944 290.747 24.925 291.539 25.6493L295.669 29.416C296.49 30.1648 297.603 30.5855 298.764 30.5855C299.926 30.5855 301.039 30.1648 301.86 29.416L305.99 25.6493C306.752 24.9555 307.207 24.0288 307.265 23.0477C308.341 22.9943 309.357 22.5798 310.117 21.884L314.247 18.1174C315.068 17.3683 315.529 16.3525 315.529 15.2934C315.529 14.2342 315.068 13.2185 314.247 12.4694L310.117 8.70144ZM293.605 6.81878L297.732 3.05347C298.006 2.80386 298.377 2.66364 298.764 2.66364C299.151 2.66364 299.523 2.80386 299.796 3.05347L303.926 6.81878C304.199 7.06846 304.353 7.40706 304.353 7.76011C304.353 8.11316 304.199 8.45175 303.926 8.70144L300.653 11.6865C300.063 11.4295 299.418 11.2967 298.764 11.2977C298.111 11.2969 297.466 11.4298 296.877 11.6865L293.603 8.70144C293.33 8.45175 293.176 8.11316 293.176 7.76011C293.176 7.40706 293.33 7.06846 293.603 6.81878M302.716 17.0149C302.989 16.493 303.142 15.9098 303.142 15.2921C303.143 14.6964 302.997 14.108 302.716 13.5705L305.988 10.5841C306.262 10.3345 306.633 10.1943 307.02 10.1943C307.407 10.1943 307.778 10.3345 308.052 10.5841L312.18 14.3507C312.454 14.6004 312.607 14.939 312.607 15.2921C312.607 15.6451 312.454 15.9837 312.18 16.2334L308.052 20C307.778 20.2496 307.407 20.3899 307.02 20.3899C306.633 20.3899 306.262 20.2496 305.988 20L302.716 17.0149ZM296.876 18.8976C297.465 19.1548 298.11 19.2882 298.764 19.2882C299.417 19.2882 300.062 19.1548 300.652 18.8976L303.924 21.8827C304.198 22.1324 304.352 22.471 304.352 22.824C304.352 23.1771 304.198 23.5157 303.924 23.7653L299.795 27.5307C299.521 27.7803 299.15 27.9205 298.763 27.9205C298.376 27.9205 298.005 27.7803 297.731 27.5307L293.603 23.7653C293.33 23.5157 293.176 23.1771 293.176 22.824C293.176 22.471 293.33 22.1324 293.603 21.8827L296.876 18.8976ZM294.81 13.5705C294.528 14.1082 294.382 14.6967 294.382 15.2927C294.382 15.8888 294.528 16.4772 294.81 17.0149L291.538 20C291.264 20.2496 290.893 20.3899 290.506 20.3899C290.119 20.3899 289.748 20.2496 289.474 20L285.346 16.2334C285.072 15.9837 284.919 15.6451 284.919 15.2921C284.919 14.939 285.072 14.6004 285.346 14.3507L289.474 10.5854C289.748 10.3358 290.119 10.1956 290.506 10.1956C290.893 10.1956 291.264 10.3358 291.538 10.5854L294.81 13.5705Z" fill="#242424"/>
</svg>
