<svg width="59" height="37" viewBox="0 0 59 37" fill="none" xmlns="http://www.w3.org/2000/svg">
<path d="M40.4092 12.065C39.6486 11.3691 38.6327 10.9546 37.557 10.9013C37.4985 9.92015 37.0441 8.99347 36.2813 8.29965L32.1506 4.53301C31.3294 3.78419 30.2158 3.36353 29.0547 3.36353C27.8935 3.36353 26.7799 3.78419 25.9588 4.53301L21.8309 8.29965C21.0681 8.99339 20.6136 9.92012 20.5552 10.9013C19.5174 10.9545 18.4971 11.342 17.7031 12.065L13.5738 15.8329C12.7529 16.582 12.2917 17.5978 12.2917 18.6569C12.2917 19.7161 12.7529 20.7319 13.5738 21.4809L17.7031 25.2475C18.4637 25.9433 19.4796 26.3578 20.5552 26.4112C20.6136 27.3579 21.0383 28.2885 21.8309 29.0129L25.9602 32.7795C26.7814 33.5283 27.895 33.949 29.0561 33.949C30.2173 33.949 31.3308 33.5283 32.152 32.7795L36.2813 29.0129C37.0441 28.319 37.4985 27.3924 37.557 26.4112C38.6326 26.3578 39.6485 25.9433 40.4092 25.2475L44.5385 21.4809C45.3594 20.7319 45.8206 19.7161 45.8206 18.6569C45.8206 17.5978 45.3594 16.582 44.5385 15.8329L40.4092 12.065ZM23.8963 10.1823L28.0242 6.41699C28.2979 6.16739 28.6691 6.02717 29.0561 6.02717C29.4432 6.02717 29.8144 6.16739 30.0881 6.41699L34.2174 10.1823C34.491 10.432 34.6448 10.7706 34.6448 11.1236C34.6448 11.4767 34.491 11.8153 34.2174 12.065L30.9449 15.05C30.3552 14.793 29.7097 14.6602 29.0561 14.6613C28.4031 14.6604 27.7581 14.7933 27.1688 15.05L23.8949 12.065C23.6212 11.8153 23.4675 11.4767 23.4675 11.1236C23.4675 10.7706 23.6212 10.432 23.8949 10.1823M33.0074 20.3785C33.2803 19.8565 33.4336 19.2734 33.4336 18.6556C33.4345 18.0599 33.2888 17.4716 33.0074 16.934L36.2799 13.9476C36.5536 13.698 36.9248 13.5578 37.3118 13.5578C37.6989 13.5578 38.0701 13.698 38.3438 13.9476L42.4716 17.7143C42.7453 17.9639 42.899 18.3025 42.899 18.6556C42.899 19.0086 42.7453 19.3472 42.4716 19.5969L38.3438 23.3636C38.0701 23.6132 37.6989 23.7534 37.3118 23.7534C36.9248 23.7534 36.5536 23.6132 36.2799 23.3636L33.0074 20.3785ZM27.1674 22.2611C27.7568 22.5183 28.402 22.6518 29.0554 22.6518C29.7088 22.6518 30.354 22.5183 30.9434 22.2611L34.2159 25.2462C34.4896 25.4959 34.6433 25.8345 34.6433 26.1875C34.6433 26.5406 34.4896 26.8792 34.2159 27.1289L30.0866 30.8942C29.8129 31.1438 29.4417 31.284 29.0547 31.284C28.6676 31.284 28.2964 31.1438 28.0227 30.8942L23.8949 27.1289C23.6212 26.8792 23.4675 26.5406 23.4675 26.1875C23.4675 25.8345 23.6212 25.4959 23.8949 25.2462L27.1674 22.2611ZM25.102 16.934C24.82 17.4717 24.6737 18.0602 24.6737 18.6563C24.6737 19.2523 24.82 19.8408 25.102 20.3785L21.8295 23.3636C21.5557 23.6132 21.1845 23.7534 20.7975 23.7534C20.4105 23.7534 20.0393 23.6132 19.7655 23.3636L15.6377 19.5969C15.3641 19.3472 15.2103 19.0086 15.2103 18.6556C15.2103 18.3025 15.3641 17.9639 15.6377 17.7143L19.7655 13.9489C20.0393 13.6993 20.4105 13.5591 20.7975 13.5591C21.1845 13.5591 21.5557 13.6993 21.8295 13.9489L25.102 16.934Z" fill="#242424"/>
</svg>
