<svg width="50" height="50" viewBox="0 0 50 50" fill="none" xmlns="http://www.w3.org/2000/svg">
<path d="M46.1055 39.9688L28.2383 48.0469C27.1367 48.5664 25.9883 48.5156 24.9336 47.9062L2.37892 36.4531C1.73439 36.0391 1.54298 35.4336 1.58205 35.0117C1.62111 34.5898 1.71877 34.1328 2.85158 33.8047L4.52345 33.1875L27.1485 45.5195L43.2266 38.9492L46.1055 39.9688Z" fill="#01579B"/>
<path d="M28.0234 46.7539C27.5767 46.9635 27.0864 47.0636 26.5932 47.0459C26.1 47.0283 25.6182 46.8934 25.1875 46.6523L3.16798 35.5586C2.85548 35.3867 2.76173 34.9922 2.94923 34.6875C3.43361 33.8867 4.32423 31.3555 2.85548 29.2539L27.7227 41.2266L28.0234 46.7539Z" fill="#F5F5F5"/>
<path d="M45.1523 39.0548L28.0234 46.754C27.457 47.0001 26.3281 47.4376 25.0273 46.5626C26.0547 46.6368 26.7773 46.211 27.1484 45.5196C27.5117 44.8477 27.4023 43.7462 26.9609 43.1251C26.6914 42.7501 25.9687 42.1524 25.6523 41.8165L44.1797 34.5704C45.8203 33.8946 47.3594 34.9063 47.6055 36.1368C47.8789 37.5274 46.1055 38.6642 45.1523 39.0548Z" fill="#94C6D6"/>
<path d="M46.0078 33.9688L28.3242 41.8594C27.2109 42.3008 25.9648 42.2422 24.8984 41.7031L2.30469 30.2266C2.08594 30.1172 1.76172 29.8164 1.63282 29.4063C1.42188 28.7227 1.6875 27.8633 2.48829 27.5898L26.9727 40.0703L43.7383 32.8945L46.0078 33.9688Z" fill="#01579B"/>
<path d="M47.3398 35.1134L45.4141 34.4142L41.4453 34.6446L28.3281 40.5001C27.2148 40.9415 25.9687 40.8829 24.9023 40.3439L2.30468 28.8712C1.72265 28.5743 1.84765 27.711 2.48827 27.59L18.7734 20.3048C19.2383 20.2189 19.7148 20.2696 20.1484 20.4532L43.3867 31.5314C43.3867 31.5314 47.0781 34.0587 47.3398 35.1134Z" fill="#0091EA"/>
<path d="M41.2227 34.7578C41.2227 34.7578 43.668 33.8007 45.5898 33.8867C47.5117 33.9726 48.1797 35.3203 48.1797 35.3203C47.8164 33.6679 46.1094 32.8242 46.1094 32.8242L20.7188 20.039C20.543 19.9648 19.8945 19.8124 18.8984 20.2226C18.0938 20.5546 15.4648 21.7851 15.4648 21.7851L41.2227 34.7578Z" fill="#616161"/>
<path d="M48.2891 35.6329C48.1055 34.9024 47.6523 34.1212 46.8164 33.7423C45.7148 33.2462 44.1445 33.3751 43.1406 33.8985L41.2227 34.7501V36.1016L43.6484 35.0235C46.0078 33.9727 47.0547 35.547 47.1445 35.918C47.5195 37.4298 46.793 38.3048 44.6484 39.2891L41.1641 40.8595V42.2188L45.1719 40.4337C46.9453 39.7227 48.9688 38.3868 48.2891 35.6329Z" fill="#424242"/>
<path d="M12.8945 35.2773L6.14844 25.9531L7.20703 25.4805L14.7969 35.9102L12.8945 35.2773ZM21.5469 39.5742L20.3438 38.6211L41.2227 34.3594V35.043L38.2969 36.1523L21.5469 39.5742Z" fill="#01579B"/>
<path d="M5.78125 18.0391L32.1523 13.6328L43.6719 26.3164C44.2539 26.9297 43.9375 27.9453 43.1094 28.1133L15.8828 33.6992L5.78125 18.0391Z" fill="#9CCC65"/>
<path d="M43.1094 27.0195L16.0703 32.4961L15.9844 33.7852L43.1094 28.2227C43.875 28.0625 44.1953 27.1875 43.7773 26.5703C43.6289 26.7891 43.4023 26.9609 43.1094 27.0195ZM44.5664 32.9297C44.8516 33.3828 44.5938 33.9805 44.0703 34.0859L19.1797 39.1328C17.6836 39.4414 16.2148 38.4609 16.082 36.9375C15.9688 35.6484 16.8398 34.4805 18.1094 34.2148L42.0469 28.8398L44.5664 32.9297Z" fill="#689F38"/>
<path d="M21.7148 31.2891L11.8008 17.1016L6.14453 18.5977C4.83594 19.8984 5.32422 22.0352 5.32422 22.0352C5.32422 22.0352 13.9844 35.9336 15.3516 37.7109C16.7188 39.4883 18.7148 39.2109 18.7148 39.2109L22.0859 38.5312L21.7344 32.2422L21.7148 31.2891Z" fill="#616161"/>
<path d="M21.7148 31.3828L16.9531 32.3672C15.6523 32.6602 15.418 33.8828 15.418 33.8828L3.92188 17.4102C3.92188 17.4102 2.28516 19.3906 3.3711 21.0742L15.3516 37.7109C16.6602 39.5742 18.7148 39.2266 18.7148 39.2266L22.0859 38.5469L21.7383 32.3828L21.7148 31.3828Z" fill="#424242"/>
<path d="M43.0664 32.4219C43.1875 32.6875 43.0313 32.9961 42.7461 33.0547L18.9453 37.9375C17.4492 38.2461 16.3906 37.2539 16.4453 35.9023C16.5156 34.1953 17.4727 33.4727 18.7383 33.2109L42.6563 28.3242C42.6563 28.3242 41.8438 29.2383 42.4649 30.9492C42.6758 31.5391 42.9024 32.0625 43.0664 32.4219Z" fill="#B9E4EA"/>
<path d="M17.6602 32.6953L7.46094 18.2656" stroke="#424242" stroke-width="0.808984" stroke-miterlimit="10"/>
<path d="M18.4609 26.543L5.34375 19.9336L4.8125 20.9805L19.9688 28.7031L18.4609 26.543Z" fill="#424242"/>
<path d="M42.4961 25.0117L41.5352 23.957L26.7578 30.7383L18.4609 26.6328L19.875 28.6562L25.3711 31.4648L29.4648 30.8359L42.4961 25.0117Z" fill="#689F38"/>
<path d="M46.1016 22.4023L28.2383 30.4805C27.1367 31 25.9883 30.9492 24.9336 30.3398L2.37892 18.8867C1.73439 18.4727 1.54298 17.8672 1.58205 17.4453C1.62111 17.0234 1.71877 16.5664 2.85158 16.2383L3.91017 15.8477L27.082 27.2188L45.8985 19.4336L46.1016 22.4023Z" fill="#C62828"/>
<path d="M28.0195 29.1875C27.5728 29.3971 27.0825 29.4972 26.5893 29.4795C26.0961 29.4619 25.6142 29.327 25.1836 29.0859L3.16408 17.9922C2.85158 17.8203 2.75782 17.4258 2.94532 17.1211C3.4297 16.3203 4.32033 13.7891 2.85157 11.6875L27.1641 24.0547L28.0195 29.1875Z" fill="#F5F5F5"/>
<path d="M45.1484 21.4884L28.0195 29.1876C27.4531 29.4337 26.3242 29.8712 25.0234 28.9962C26.0508 29.0704 26.7734 28.6446 27.1445 27.9532C27.5078 27.2813 27.3984 26.1798 26.957 25.5587C26.6875 25.1837 25.9648 24.586 25.6484 24.2501L44.1758 17.004C45.8164 16.3282 47.3555 17.3399 47.6016 18.5704C47.875 19.961 46.1016 21.0977 45.1484 21.4884Z" fill="#94C6D6"/>
<path d="M46.0078 16.4023L28.3242 24.293C27.2109 24.7344 25.9648 24.6758 24.8984 24.1367L2.30076 12.6602C2.06639 12.543 1.71482 12.2422 1.60154 11.8164C1.43357 11.1836 1.65232 10.3516 2.48436 10.0234L23.1914 5.63672L46.0078 16.4023Z" fill="#C62828"/>
<path d="M47.3359 17.547L45.4102 16.8478L41.4414 17.0782L28.3242 22.9337C27.2109 23.3751 25.9649 23.3165 24.8984 22.7775L2.30079 11.3009C1.71876 11.004 1.92579 10.2189 2.48439 10.0196L18.7734 2.73839C19.2383 2.65245 19.7149 2.70323 20.1484 2.88683L43.3867 13.965C43.3867 13.965 47.0742 16.4884 47.3359 17.547Z" fill="#F44336"/>
<path d="M41.2227 17.1874C41.2227 17.1874 43.2578 16.4726 45.1797 16.5585C47.1016 16.6445 48.1836 17.7499 48.1836 17.7499C47.7891 15.9843 46.1133 15.2539 46.1133 15.2539L20.7227 2.4687C20.5469 2.39448 19.8984 2.24214 18.9023 2.65229C18.0977 2.98432 15.4688 4.21479 15.4688 4.21479L41.2227 17.1874Z" fill="#616161"/>
<path d="M43.5469 16.3516L17.5664 3.24609L18.4258 2.85938L44.8477 16.1016L43.5469 16.3516Z" fill="#424242"/>
<path d="M48.2852 18.0665C48.1016 17.336 47.793 16.629 46.9219 16.2618C45.8086 15.793 44.793 15.6954 43.1367 16.3321L41.2187 17.1837V18.5352L43.6445 17.4571C44.875 16.879 46.6875 17.004 47.1406 18.3516C47.6367 19.8282 46.7891 20.7383 44.6445 21.7227L41.1602 23.293V24.6524L45.168 22.8673C46.9453 22.1563 48.9687 20.8204 48.2852 18.0665Z" fill="#424242"/>
</svg>
