<svg width="24" height="22" viewBox="0 0 24 22" fill="none" xmlns="http://www.w3.org/2000/svg">
<path d="M20.1265 6.2285C19.5821 5.73039 18.8549 5.43368 18.085 5.39553C18.043 4.69324 17.7178 4.02992 17.1718 3.53328L14.215 0.837116C13.6272 0.301111 12.8301 0 11.999 0C11.1678 0 10.3707 0.301111 9.78292 0.837116L6.8282 3.53328C6.28213 4.02987 5.95686 4.69322 5.91504 5.39553C5.17218 5.43365 4.44186 5.71099 3.87348 6.2285L0.917717 8.92561C0.330103 9.46178 0 10.1889 0 10.947C0 11.7052 0.330103 12.4323 0.917717 12.9684L3.87348 15.6646C4.41793 16.1626 5.14512 16.4593 5.91504 16.4976C5.95683 17.1752 6.26087 17.8414 6.8282 18.3598L9.78396 21.056C10.3718 21.592 11.1689 21.8931 12 21.8931C12.8311 21.8931 13.6282 21.592 14.216 21.056L17.1718 18.3598C17.7178 17.8632 18.043 17.1999 18.085 16.4976C18.8549 16.4593 19.5821 16.1626 20.1265 15.6646L23.0823 12.9684C23.6699 12.4323 24 11.7052 24 10.947C24 10.1889 23.6699 9.46178 23.0823 8.92561L20.1265 6.2285ZM8.3066 4.88089L11.2613 2.18568C11.4573 2.00701 11.723 1.90664 12 1.90664C12.277 1.90664 12.5427 2.00701 12.7387 2.18568L15.6944 4.88089C15.8903 5.05961 16.0003 5.30198 16.0003 5.55469C16.0003 5.80741 15.8903 6.04977 15.6944 6.2285L13.352 8.36522C12.9299 8.18126 12.4678 8.08615 12 8.08693C11.5325 8.08633 11.0709 8.18143 10.6491 8.36522L8.30556 6.2285C8.10969 6.04977 7.99965 5.80741 7.99965 5.55469C7.99965 5.30198 8.10969 5.05961 8.30556 4.88089M14.8283 12.1793C15.0237 11.8057 15.1334 11.3883 15.1334 10.9461C15.134 10.5197 15.0298 10.0986 14.8283 9.71378L17.1708 7.5761C17.3667 7.39743 17.6324 7.29706 17.9094 7.29706C18.1865 7.29706 18.4522 7.39743 18.6481 7.5761L21.6028 10.2723C21.7987 10.451 21.9087 10.6934 21.9087 10.9461C21.9087 11.1988 21.7987 11.4412 21.6028 11.6199L18.6481 14.316C18.4522 14.4947 18.1865 14.5951 17.9094 14.5951C17.6324 14.5951 17.3667 14.4947 17.1708 14.316L14.8283 12.1793ZM10.648 13.5269C11.07 13.711 11.5318 13.8065 11.9995 13.8065C12.4672 13.8065 12.929 13.711 13.3509 13.5269L15.6934 15.6636C15.8893 15.8424 15.9993 16.0847 15.9993 16.3375C15.9993 16.5902 15.8893 16.8325 15.6934 17.0113L12.7376 19.7065C12.5417 19.8851 12.276 19.9855 11.999 19.9855C11.7219 19.9855 11.4562 19.8851 11.2603 19.7065L8.30556 17.0113C8.10969 16.8325 7.99965 16.5902 7.99965 16.3375C7.99965 16.0847 8.10969 15.8424 8.30556 15.6636L10.648 13.5269ZM9.16961 9.71378C8.96781 10.0987 8.86307 10.5199 8.86307 10.9465C8.86307 11.3732 8.96781 11.7944 9.16961 12.1793L6.82715 14.316C6.63122 14.4947 6.36552 14.5951 6.08847 14.5951C5.81143 14.5951 5.54572 14.4947 5.34979 14.316L2.39508 11.6199C2.1992 11.4412 2.08917 11.1988 2.08917 10.9461C2.08917 10.6934 2.1992 10.451 2.39508 10.2723L5.34979 7.57705C5.54572 7.39839 5.81143 7.29802 6.08847 7.29802C6.36552 7.29802 6.63122 7.39839 6.82715 7.57705L9.16961 9.71378Z" fill="#242424"/>
</svg>
